<?xml version="1.0" encoding="UTF-8" standalone="no"?>
<svg width="18px" height="20px" viewBox="0 0 18 20" version="1.1" xmlns="http://www.w3.org/2000/svg" xmlns:xlink="http://www.w3.org/1999/xlink" xmlns:sketch="http://www.bohemiancoding.com/sketch/ns">
    <!-- Generator: Sketch 3.0.3 (7892) - http://www.bohemiancoding.com/sketch -->
    <title>Slice 1</title>
    <desc>Created with Sketch.</desc>
    <defs></defs>
    <g id="Page-1" stroke="none" stroke-width="1" fill="none" fill-rule="evenodd" sketch:type="MSPage">
        <g id="calendar-icon" sketch:type="MSLayerGroup" fill="#FFFFFF">
            <g id="Page-1" sketch:type="MSShapeGroup">
                <path d="M16,18 L2,18 L2,7 L16,7 L16,18 L16,18 Z M13,2 L5,2 L5,0 L3,0 L3,2 L2,2 C0.8934,2 0,2.89306 0,4 L0,18 C0,19.1021 0.8934,20 2,20 L16,20 C17.1024,20 18,19.1021 18,18 L18,4 C18,2.89306 17.1024,2 16,2 L15,2 L15,0 L13,0 L13,2 Z M14,11 L9,11 L9,16 L14,16 L14,11 L14,11 Z" id="Shape"></path>
            </g>
        </g>
    </g>
</svg>