<?xml version="1.0" encoding="UTF-8" standalone="no"?>
<svg width="22px" height="18px" viewBox="0 0 22 18" version="1.1" xmlns="http://www.w3.org/2000/svg" xmlns:xlink="http://www.w3.org/1999/xlink" xmlns:sketch="http://www.bohemiancoding.com/sketch/ns">
    <!-- Generator: Sketch 3.0.3 (7892) - http://www.bohemiancoding.com/sketch -->
    <title>Slice 1</title>
    <desc>Created with Sketch.</desc>
    <defs></defs>
    <g id="Page-1" stroke="none" stroke-width="1" fill="none" fill-rule="evenodd" sketch:type="MSPage">
        <g id="cast-icon" sketch:type="MSLayerGroup" fill="#FFFFFF">
            <g id="Page-1" sketch:type="MSShapeGroup">
                <path d="M0,7 L0,9 C4.97038,9 9,13 9,18 L11,18 C11,11.9231 6.07338,7 0,7 L0,7 L0,7 Z M0,11 L0,13 C2.76138,13 5,15.2361 5,18 L7,18 C7,14.1321 3.86438,11 0,11 L0,11 L0,11 Z M0,15 L0,18 L3,18 C3,16.3421 1.65538,15 0,15 L0,15 L0,15 Z M20,0 L2,0 C0.89438,0 0,0.89406 0,2 L0,5 L2,5 L2,2 L20,2 L20,16 L13,16 L13,18 L20,18 C21.1029,18 22,17.1021 22,16 L22,2 C22,0.89406 21.1029,0 20,0 L20,0 L20,0 Z" id="Shape"></path>
            </g>
        </g>
    </g>
</svg>