<?xml version="1.0" encoding="UTF-8" standalone="no"?>
<svg width="385px" height="345px" viewBox="0 0 385 345" version="1.1" xmlns="http://www.w3.org/2000/svg" xmlns:xlink="http://www.w3.org/1999/xlink" xmlns:sketch="http://www.bohemiancoding.com/sketch/ns">
    <!-- Generator: Sketch 3.0.3 (7892) - http://www.bohemiancoding.com/sketch -->
    <title>close 2</title>
    <desc>Created with Sketch.</desc>
    <defs></defs>
    <g id="Page-1" stroke="none" stroke-width="1" fill="none" fill-rule="evenodd" sketch:type="MSPage">
        <g id="close" sketch:type="MSLayerGroup" fill="#D3333A">
            <g id="Page-1" sketch:type="MSShapeGroup">
                <g id="cartaz">
                    <path d="M217.2792,331.803189 C311.4992,310.061189 372.0232,281.896189 383.0242,251.776189 C383.2672,251.110189 383.4652,250.413189 383.6422,249.702189 C383.8912,249.012189 384.1152,248.323189 384.2842,247.635189 C391.9142,216.489189 357.3182,159.397189 291.1552,88.880189 C224.9922,18.364189 164.2962,-18.931811 106.2552,9.109189 C49.9042,36.333189 27.5122,93.801189 15.0452,137.606189 C1.0132,180.935189 -12.3808,241.140189 19.2732,295.127189 C51.8752,350.734189 123.0592,353.545189 217.2792,331.803189 Z M194.5,74.5 L169.3,151.9 L168.7,151.9 L144.1,74.5 L109.9,74.5 L144.4,176.5 L107.5,284.5 L138.4,284.5 L165.4,201.4 L166,201.4 L192.7,284.5 L227.5,284.5 L190.6,176.5 L225.1,74.5 L194.5,74.5 Z" id="Fill-192"></path>
                </g>
            </g>
        </g>
    </g>
</svg>