<?xml version="1.0" encoding="UTF-8" standalone="no"?>
<svg width="242px" height="242px" viewBox="0 0 242 242" version="1.1" xmlns="http://www.w3.org/2000/svg" xmlns:xlink="http://www.w3.org/1999/xlink" xmlns:sketch="http://www.bohemiancoding.com/sketch/ns">
    <!-- Generator: Sketch 3.0.3 (7892) - http://www.bohemiancoding.com/sketch -->
    <title>Slice 1</title>
    <desc>Created with Sketch.</desc>
    <defs></defs>
    <g id="Page-1" stroke="none" stroke-width="1" fill="none" fill-rule="evenodd" sketch:type="MSPage">
        <path d="M30.2091421,133.009615 C42.626558,186.828157 58.7136855,221.398243 75.9227631,227.685838 C76.3025899,227.820238 76.6999472,227.937108 77.103148,228.036447 C77.5005053,228.176691 77.8920191,228.305248 78.283533,228.404587 C96.0769595,232.76383 128.689476,213.001148 168.968652,175.205456 C209.247827,137.415607 230.547348,102.746182 214.530342,69.5902202 C198.980816,37.4042782 166.157933,24.6128789 141.13611,17.4955083 C116.383087,9.47824023 81.994149,1.82911203 51.1580531,19.9088696 C19.3928424,38.5320717 17.7917262,79.191074 30.2091421,133.009615" id="Fill-307" fill="#4467B1" sketch:type="MSShapeGroup"></path>
        <path d="M122.232094,175 L96.0729842,175 L96.0729842,113.492908 L83,113.492908 L83,92.2983857 L96.0729842,92.2983857 L96.0729842,79.5728782 C96.0729842,62.2816767 103.45127,52 124.419443,52 L141.877345,52 L141.877345,73.1987778 L130.965426,73.1987778 C122.801564,73.1987778 122.264218,76.160309 122.264218,81.6890685 L122.232094,92.298386 L142,92.298386 L139.687076,113.492909 L122.232094,113.492909 L122.232094,175 L122.232094,175 Z" id="Path" fill="#1B1B1B" sketch:type="MSShapeGroup"></path>
    </g>
</svg>