<?xml version="1.0" encoding="UTF-8" standalone="no"?>
<svg width="140px" height="103px" viewBox="0 0 140 103" version="1.1" xmlns="http://www.w3.org/2000/svg" xmlns:xlink="http://www.w3.org/1999/xlink" xmlns:sketch="http://www.bohemiancoding.com/sketch/ns">
    <!-- Generator: Sketch 3.0.3 (7892) - http://www.bohemiancoding.com/sketch -->
    <title>Artboard 1</title>
    <desc>Created with Sketch.</desc>
    <defs></defs>
    <g id="Page-1" stroke="none" stroke-width="1" fill="none" fill-rule="evenodd" sketch:type="MSPage">
        <g id="Artboard-1" sketch:type="MSArtboardGroup" fill="#FFFFFF">
            <g id="logo" sketch:type="MSLayerGroup">
                <g id="Group" sketch:type="MSShapeGroup">
                    <g id="Shape">
                        <path d="M5.014,40.25 L2.217,42.762 L0.052,40.238 L2.654,21.925 L4.918,21.92 L7.234,24.66 L5.014,40.25 L5.014,40.25 Z M8.165,18.127 L5.088,20.849 L2.807,20.845 L5.668,0.758 L9.933,5.715 L8.165,18.127 L8.165,18.127 Z M23.908,21.385 L21.02,23.903 L8.236,23.903 L6.043,21.385 L8.931,18.867 L21.768,18.867 L23.908,21.385 L23.908,21.385 Z M26.582,2.526 L23.694,5.045 L10.857,5.045 L6.578,0.008 L24.39,0.008 L26.582,2.526 L26.582,2.526 Z M24.271,42.763 L19.415,42.763 L8.076,27.172 L8.397,25.029 L13.002,25.029 L24.541,40.802 L24.271,42.763 L24.271,42.763 Z M27.705,18.063 L24.819,20.581 L22.628,18.068 L24.395,5.789 L27.227,3.276 L29.417,5.794 L27.705,18.063 L27.705,18.063 Z"></path>
                        <path d="M33.263,36.98 L30.377,39.494 L28.187,36.976 L30.358,21.925 L32.646,21.921 L34.988,24.717 L33.263,36.98 L33.263,36.98 Z M35.93,18.027 L32.817,20.85 L30.51,20.853 L32.573,5.794 L35.46,3.276 L37.598,5.79 L35.93,18.027 L35.93,18.027 Z M48.833,40.245 L45.945,42.763 L33.215,42.763 L31.075,40.245 L33.91,37.727 L46.693,37.727 L48.833,40.245 L48.833,40.245 Z M54.128,2.526 L51.293,5.045 L38.51,5.045 L36.37,2.526 L39.205,0.008 L51.988,0.008 L54.128,2.526 L54.128,2.526 Z M52.632,36.975 L49.746,39.495 L47.555,36.983 L49.313,24.708 L52.389,21.921 L54.67,21.914 L52.632,36.975 L52.632,36.975 Z M54.871,20.849 L52.579,20.85 L50.234,18.077 L51.942,5.789 L54.826,3.277 L56.963,5.795 L54.871,20.849 L54.871,20.849 Z"></path>
                        <path d="M60.916,36.98 L58.03,39.494 L55.84,36.976 L58.011,21.925 L60.299,21.921 L62.641,24.717 L60.916,36.98 L60.916,36.98 Z M63.583,18.027 L60.47,20.85 L58.163,20.853 L60.226,5.794 L63.113,3.276 L65.251,5.79 L63.583,18.027 L63.583,18.027 Z M76.469,40.277 L73.597,42.762 L60.867,42.762 L58.727,40.244 L61.56,37.726 L74.331,37.726 L76.469,40.277 L76.469,40.277 Z M81.729,2.52 L78.903,5.045 L66.157,5.045 L64.023,2.526 L66.858,0.008 L79.641,0.008 L81.729,2.52 L81.729,2.52 Z M80.282,36.977 L77.386,39.484 L75.221,36.999 L75.434,35.579 L78.29,33.107 L80.431,35.648 L80.282,36.977 L80.282,36.977 Z M84.47,7.15 L81.547,9.697 L79.42,7.14 L79.588,5.794 L82.461,3.288 L84.615,5.794 L84.47,7.15 L84.47,7.15 Z"></path>
                        <path d="M88.087,40.195 L85.254,42.762 L83.064,40.19 L85.637,21.921 L87.95,21.921 L90.317,24.744 L88.087,40.195 L88.087,40.195 Z M91.143,18.109 L88.068,20.849 L85.788,20.848 L88.36,2.579 L91.193,0.007 L93.384,2.575 L91.143,18.109 L91.143,18.109 Z M97.094,21.385 L94.206,23.904 L91.087,23.904 L88.947,21.386 L91.836,18.868 L94.955,18.868 L97.094,21.385 L97.094,21.385 Z M106.553,42.763 L103.978,42.763 L95.634,24.065 L98.044,21.922 L100.241,21.919 L107.251,37.758 L106.553,42.763 L106.553,42.763 Z M111.881,5.023 L100.386,20.844 L98.198,20.849 L96.383,18.706 L109.968,0.007 L112.59,0.007 L111.881,5.023 L111.881,5.023 Z"></path>
                    </g>
                    <g transform="translate(111.000000, 12.000000)" id="Shape">
                        <path d="M5.336,15.034 L4.126,16.388 C3.282,17.178 2.466,17.6 1.791,17.6 C0.749,17.6 0.131,16.867 0.131,15.683 C0.131,11.087 5.505,6.237 6.687,6.237 C6.968,6.237 8.15,7.027 8.207,7.055 L8.403,6.857 C8.488,6.688 8.6,6.519 8.826,6.519 C9.304,6.519 9.444,6.716 9.586,6.914 C9.839,7.055 9.896,7.111 9.896,7.252 C9.896,7.59 9.558,8.718 9.445,8.972 C8.911,10.439 7.954,13.202 7.954,14.358 L7.982,14.555 L8.095,14.583 L10.149,13.173 C10.29,13.173 10.374,13.737 10.374,13.878 C10.374,14.132 9.023,15.937 8.742,16.218 C8.517,16.387 8.292,16.613 7.982,17.008 C7.672,17.403 7.336,17.826 6.66,17.826 C5.985,17.826 5.309,17.149 5.338,16.472 L5.338,15.034 L5.336,15.034 Z M3.085,14.667 C3.479,14.3 5.589,12.101 5.814,11.312 C5.955,10.917 6.601,9.084 6.658,8.661 L6.546,8.548 C5.251,8.548 4.379,10.578 4.183,11.029 L3.564,12.354 C3.141,13.144 2.804,14.103 2.664,14.92 L3.085,14.667 L3.085,14.667 Z M8.29,4.741 C8.234,4.995 8.206,4.995 7.896,4.995 C6.939,4.318 6.77,4.205 6.348,3.726 C5.25,2.485 5.195,2.26 5.195,1.047 L5.56,0.398 C5.841,0.314 5.87,0.286 6.179,0.06 L6.348,0.06 C6.517,0.06 6.574,0.088 6.742,0.257 L6.968,0.341 L7.728,2.738 L8.572,4.373 L8.572,4.6 L8.29,4.741 L8.29,4.741 Z"></path>
                        <path d="M9.223,19.332 L9.139,18.401 C9.139,17.837 9.42,17.583 10.49,16.596 C10.912,16.201 13.163,14.368 13.501,13.833 C13.36,13.664 13.332,13.635 13.135,13.635 C10.884,13.494 10.743,13.184 10.743,12.366 C10.743,10.815 11.306,9.659 13.022,8.024 C13.641,7.432 16.061,5.881 16.371,5.881 C16.85,5.881 17.384,6.36 17.412,6.783 C17.412,7.009 16.849,7.742 16.455,7.939 L16.202,8.193 C15.752,8.926 15.33,9.264 14.711,9.744 C14.204,10.167 13.585,10.675 13.332,11.182 L13.754,11.323 C14.317,11.323 15.021,11.407 15.245,11.492 C15.864,11.774 16.314,12.169 16.314,12.479 L16.173,13.042 L16.426,13.691 C16.426,14.058 15.695,15.411 15.358,15.89 C14.429,17.216 10.94,20.458 9.73,20.458 C9.251,20.458 9.167,20.148 9.167,19.894 L9.223,19.332 L9.223,19.332 Z"></path>
                    </g>
                    <g transform="translate(2.000000, 48.000000)" id="Shape">
                        <path d="M5.83,50.699 L2.264,53.932 L-0.495,50.694 L2.745,27.688 L5.658,27.687 L8.638,31.243 L5.83,50.699 L5.83,50.699 Z M9.679,22.888 L5.806,26.338 L2.934,26.337 L6.174,3.331 L9.741,0.093 L12.501,3.326 L9.679,22.888 L9.679,22.888 Z M26.438,22.627 L22.693,22.627 L12.774,11.015 L13.784,3.534 L15.602,3.534 L27.187,17.096 L26.438,22.627 L26.438,22.627 Z M30.219,50.694 L26.584,53.932 L23.892,50.699 L26.714,31.137 L30.587,27.687 L33.459,27.688 L30.219,50.694 L30.219,50.694 Z M33.647,26.337 L30.734,26.338 L27.754,22.782 L30.562,3.326 L34.128,0.093 L36.887,3.272 L33.647,26.337 L33.647,26.337 Z"></path>
                        <path d="M41.259,46.651 L37.625,49.817 L34.867,46.645 L37.601,27.692 L40.483,27.687 L43.432,31.207 L41.259,46.651 L41.259,46.651 Z M44.617,22.783 L40.697,26.338 L37.791,26.342 L40.389,7.379 L44.024,4.208 L46.716,7.374 L44.617,22.783 L44.617,22.783 Z M60.865,50.762 L57.228,53.933 L41.198,53.933 L38.504,50.762 L42.074,47.591 L58.172,47.591 L60.865,50.762 L60.865,50.762 Z M67.533,3.264 L63.963,6.435 L47.865,6.435 L45.171,3.264 L48.741,0.093 L64.839,0.093 L67.533,3.264 L67.533,3.264 Z M65.649,46.644 L62.015,49.818 L59.255,46.655 L61.469,31.197 L65.342,27.688 L68.214,27.679 L65.649,46.644 L65.649,46.644 Z M68.469,26.337 L65.583,26.338 L62.63,22.846 L64.78,7.372 L68.412,4.208 L71.103,7.379 L68.469,26.337 L68.469,26.337 Z"></path>
                        <path d="M83.43,53.933 L81.005,53.933 L71.979,30.649 L72.383,27.688 L78.378,27.688 L84.642,45.251 L83.43,53.933 L83.43,53.933 Z M79.346,24.208 L77.927,26.338 L72.653,26.338 L75.886,3.331 L79.555,0.093 L82.272,3.397 L79.346,24.208 L79.346,24.208 Z M102.76,30.656 L87.201,53.932 L84.776,53.932 L86.047,45.35 L97.286,27.687 L103.108,27.687 L102.76,30.656 L102.76,30.656 Z M103.367,26.338 L98.148,26.338 L97.267,24.241 L100.274,3.326 L103.908,0.093 L106.599,3.331 L103.367,26.338 L103.367,26.338 Z"></path>
                        <path d="M110.971,46.651 L107.337,49.817 L104.578,46.646 L107.312,27.692 L110.193,27.687 L113.142,31.207 L110.971,46.651 L110.971,46.651 Z M114.329,22.783 L110.408,26.338 L107.503,26.342 L110.102,7.379 L113.737,4.208 L116.429,7.374 L114.329,22.783 L114.329,22.783 Z M130.577,50.762 L126.939,53.933 L110.909,53.933 L108.215,50.762 L111.785,47.591 L127.883,47.591 L130.577,50.762 L130.577,50.762 Z M129.903,27.013 L126.334,30.184 L114.143,30.184 L111.449,27.013 L115.086,23.842 L127.21,23.842 L129.903,27.013 L129.903,27.013 Z M137.245,3.264 L133.676,6.435 L117.577,6.435 L114.884,3.264 L118.453,0.093 L134.551,0.093 L137.245,3.264 L137.245,3.264 Z"></path>
                    </g>
                </g>
            </g>
        </g>
    </g>
</svg>