<?xml version="1.0" encoding="UTF-8" standalone="no"?>
<svg width="49px" height="47px" viewBox="0 0 49 47" version="1.1" xmlns="http://www.w3.org/2000/svg" xmlns:xlink="http://www.w3.org/1999/xlink" xmlns:sketch="http://www.bohemiancoding.com/sketch/ns">
    <!-- Generator: Sketch 3.0.3 (7892) - http://www.bohemiancoding.com/sketch -->
    <title>Artboard 1</title>
    <desc>Created with Sketch.</desc>
    <defs></defs>
    <g id="Page-1" stroke="none" stroke-width="1" fill="none" fill-rule="evenodd" sketch:type="MSPage">
        <g id="Artboard-1" sketch:type="MSArtboardGroup" fill="#313131">
            <g id="close" sketch:type="MSLayerGroup" transform="translate(22.500000, 20.500000) rotate(-14.000000) translate(-22.500000, -20.500000) translate(0.000000, -1.000000)">
                <g id="Page-1" transform="translate(0.000000, 0.000000)" sketch:type="MSShapeGroup">
                    <g id="close" transform="translate(0.000000, -0.000000)">
                        <g id="Page-1" transform="translate(0.000000, -0.000000)">
                            <g id="cartaz" transform="translate(0.000000, -0.000000)">
                                <path d="M44.7690623,31.4368778 C44.7974649,31.3592245 44.8206078,31.2779567 44.8412961,31.1950565 C44.8704,31.1146049 44.8965818,31.0342699 44.9163351,30.9540515 C45.8081532,27.3225356 41.7644649,20.665806 34.0311273,12.4437677 C26.2977896,4.22184607 19.2034519,-2.20738367 12.419439,1.06209992 C5.83295844,4.23632414 3.21571169,13.0175393 1.75852987,18.1250507 C0.118425974,23.1770622 -1.44710649,32.2774021 2.25271169,38.5720995 C6.06333506,45.0556834 14.3835429,43.3027911 25.3962701,40.7677491 C36.4089974,38.2327071 43.4832312,34.9487656 44.7690623,31.4368778 Z" id="Fill-192"></path>
                            </g>
                        </g>
                    </g>
                </g>
            </g>
        </g>
    </g>
</svg>