<?xml version="1.0" encoding="UTF-8" standalone="no"?>
<svg width="242px" height="242px" viewBox="0 0 242 242" version="1.1" xmlns="http://www.w3.org/2000/svg" xmlns:xlink="http://www.w3.org/1999/xlink" xmlns:sketch="http://www.bohemiancoding.com/sketch/ns">
    <!-- Generator: Sketch 3.0.3 (7892) - http://www.bohemiancoding.com/sketch -->
    <title>Slice 1</title>
    <desc>Created with Sketch.</desc>
    <defs></defs>
    <g id="Page-1" stroke="none" stroke-width="1" fill="none" fill-rule="evenodd" sketch:type="MSPage">
        <path d="M30.2091421,133.009615 C42.626558,186.828157 58.7136855,221.398243 75.9227631,227.685838 C76.3025899,227.820238 76.6999472,227.937108 77.103148,228.036447 C77.5005053,228.176691 77.8920191,228.305248 78.283533,228.404587 C96.0769595,232.76383 128.689476,213.001148 168.968652,175.205456 C209.247827,137.415607 230.547348,102.746182 214.530342,69.5902202 C198.980816,37.4042782 166.157933,24.6128789 141.13611,17.4955083 C116.383087,9.47824023 81.994149,1.82911203 51.1580531,19.9088696 C19.3928424,38.5320717 17.7917262,79.191074 30.2091421,133.009615" id="Fill-307" fill="#7ED321" sketch:type="MSShapeGroup"></path>
        <g id="Oval-1-+-Spotify" sketch:type="MSLayerGroup" transform="translate(57.127852, 50.654453)">
            <ellipse id="Oval-1" fill="#1B1B1B" sketch:type="MSShapeGroup" cx="59.9903641" cy="59.6592345" rx="59.9903641" ry="59.9903641"></ellipse>
            <g id="Spotify" transform="translate(18.497029, 30.663892)" sketch:type="MSShapeGroup">
                <g id="Group">
                    <g id="Shape" fill="#000000">
                        <g>
                            <g>
                                <path d="M7.1669988,24.685135 C28.9545492,18.073147 56.0404485,21.2756326 74.5574242,32.6546549 C75.8988088,33.4826219 76.669435,34.8741484 76.7671193,36.3338639 C76.7958147,34.7353207 76.0189395,33.1591238 74.5574242,32.2595183 C56.0404985,20.8805461 28.9545492,17.6780605 7.1669988,24.2909483 C5.00119669,24.9486426 3.66431142,27.0355574 3.86947847,29.2076085 C3.85158134,27.1833337 5.13292553,25.3042855 7.1669988,24.685135"></path>
                                <path d="M9.2495143,43.5914981 C32.1015937,38.3675372 51.7036451,40.6157261 67.5154054,50.2778741 C68.5843837,50.9302194 69.1999848,52.0350419 69.2868708,53.1972052 C69.3289641,51.8952643 68.7062141,50.6103207 67.5154054,49.8827376 C51.7036451,40.2205896 32.1015437,37.9715008 9.2495143,43.1954617 C7.43500576,43.6094453 6.2468466,45.2743278 6.36062833,47.0708893 C6.43406653,45.4302028 7.56938417,43.972337 9.2495143,43.5914981"></path>
                                <path d="M3.77814314,4.4003432 C24.9688894,-2.03242354 60.1954811,-0.789573175 82.4579552,12.4254042 C84.0994916,13.3993977 85.0537883,15.0803777 85.1828675,16.8491936 C85.1792681,14.9397003 84.221422,13.0767995 82.4579552,12.0302177 C60.1954811,-1.1847597 24.9688894,-2.42761007 3.77814314,4.00520667 C1.17781081,4.79552972 -0.426181545,7.29817773 -0.177921421,9.90120962 C-0.236212059,7.44605398 1.31128937,5.15032273 3.77814314,4.4003432"></path>
                            </g>
                        </g>
                    </g>
                    <path d="M74.5573243,32.6546549 C56.0403485,21.2756826 28.9553491,18.073197 7.16689882,24.685185 C4.69734549,25.4369642 3.30221958,28.0444954 4.04769984,30.518498 C4.79952908,32.9871015 7.41150953,34.3813775 9.88551214,33.6340475 C28.9580486,27.8446275 53.54125,30.7156163 69.6630604,40.6250746 C71.8619572,41.9763076 74.7400949,41.2863684 76.096727,39.084772 C77.4480099,36.8885248 76.7562211,34.0085874 74.5573243,32.6546549" id="Shape" fill="#7ED321"></path>
                    <path d="M82.4575053,12.4250542 C60.1958811,-0.789973111 24.9693393,-2.03187363 3.77764322,4.39999325 C0.810819762,5.30144846 -0.860311813,8.43404529 0.038393833,11.3999689 C0.936249615,14.3640928 4.07154601,16.0379239 7.0356699,15.1383184 C25.4953048,9.53531839 57.3921314,10.5917487 76.7298753,22.0755541 C79.3893981,23.6588998 82.8355946,22.779841 84.4180404,20.1131693 C85.9977866,17.4509969 85.1232271,14.0075001 82.4575053,12.4250542" id="Shape" fill="#7ED321"></path>
                    <path d="M67.5151554,50.2781241 C51.7033452,40.6150762 32.1012937,38.3677872 9.24921435,43.5917981 C7.23308819,44.0505744 5.97683997,46.0568021 6.43741599,48.068479 C6.8961923,50.0801059 8.90157019,51.3408534 10.9140969,50.8802774 C31.7957428,46.1096937 49.5268448,48.0541313 63.6146319,56.6651982 C65.376249,57.7413253 67.6782292,57.1876143 68.7553062,55.4205481 C69.8332331,53.6580312 69.2785722,51.3552011 67.5151554,50.2781241" id="Shape" fill="#7ED321"></path>
                </g>
            </g>
        </g>
    </g>
</svg>