<?xml version="1.0" encoding="UTF-8" standalone="no"?>
<svg width="1200px" height="45px" viewBox="0 0 1200 45" version="1.1" xmlns="http://www.w3.org/2000/svg" xmlns:xlink="http://www.w3.org/1999/xlink" xmlns:sketch="http://www.bohemiancoding.com/sketch/ns">
    <!-- Generator: Sketch 3.0.3 (7892) - http://www.bohemiancoding.com/sketch -->
    <title>Artboard 1</title>
    <desc>Created with Sketch.</desc>
    <defs>
        <path id="path-1" d="M-14,55 L31,0 L98,27 L140,1 L156,23 L226,9 L311,24 L365,7 L430,28 L441,5 L452,28 L560,13 L652,28 L704,11 L778,28 L848,1 L870,28 L900,13 L955,28 L1051,1 L1139,28 L1200,28 L1219,1 L1227,148 L-14,55 Z"></path>
    </defs>
    <g id="Page-1" stroke="none" stroke-width="1" fill="none" fill-rule="evenodd" sketch:type="MSPage">
        <g id="Artboard-1" sketch:type="MSArtboardGroup">
            <mask id="mask-2" sketch:name="Path 1" fill="white">
                <use xlink:href="#path-1"></use>
            </mask>
            <use id="Path-1" sketch:type="MSShapeGroup" xlink:href="#path-1"></use>
            <rect id="Rectangle-1" fill="#E2D643" sketch:type="MSShapeGroup" mask="url(#mask-2)" x="-25" y="0" width="7" height="194">
                <g transform="translate(-21.500000, 97.000000) rotate(14.000000) translate(21.500000, -97.000000) "></g>
            </rect>
            <rect id="Rectangle-2" fill="#E2D643" sketch:type="MSShapeGroup" mask="url(#mask-2)" x="-15" y="0" width="7" height="194">
                <g transform="translate(-11.500000, 97.000000) rotate(14.000000) translate(11.500000, -97.000000) "></g>
            </rect>
            <rect id="Rectangle-10" fill="#E2D643" sketch:type="MSShapeGroup" mask="url(#mask-2)" x="-5" y="0" width="7" height="194">
                <g transform="translate(-1.500000, 97.000000) rotate(14.000000) translate(1.500000, -97.000000) "></g>
            </rect>
            <rect id="Rectangle-9" fill="#E2D643" sketch:type="MSShapeGroup" mask="url(#mask-2)" x="5" y="0" width="7" height="194">
                <g transform="translate(8.500000, 97.000000) rotate(14.000000) translate(-8.500000, -97.000000) "></g>
            </rect>
            <rect id="Rectangle-4" fill="#E2D643" sketch:type="MSShapeGroup" mask="url(#mask-2)" x="15" y="0" width="7" height="194">
                <g transform="translate(18.500000, 97.000000) rotate(14.000000) translate(-18.500000, -97.000000) "></g>
            </rect>
            <rect id="Rectangle-3" fill="#E2D643" sketch:type="MSShapeGroup" mask="url(#mask-2)" x="25" y="0" width="7" height="194">
                <g transform="translate(28.500000, 97.000000) rotate(14.000000) translate(-28.500000, -97.000000) "></g>
            </rect>
            <rect id="Rectangle-6" fill="#E2D643" sketch:type="MSShapeGroup" mask="url(#mask-2)" x="35" y="0" width="7" height="194">
                <g transform="translate(38.500000, 97.000000) rotate(14.000000) translate(-38.500000, -97.000000) "></g>
            </rect>
            <rect id="Rectangle-5" fill="#E2D643" sketch:type="MSShapeGroup" mask="url(#mask-2)" x="45" y="0" width="7" height="194">
                <g transform="translate(48.500000, 97.000000) rotate(14.000000) translate(-48.500000, -97.000000) "></g>
            </rect>
            <rect id="Rectangle-8" fill="#E2D643" sketch:type="MSShapeGroup" mask="url(#mask-2)" x="55" y="0" width="7" height="194">
                <g transform="translate(58.500000, 97.000000) rotate(14.000000) translate(-58.500000, -97.000000) "></g>
            </rect>
            <rect id="Rectangle-7" fill="#E2D643" sketch:type="MSShapeGroup" mask="url(#mask-2)" x="65" y="0" width="7" height="194">
                <g transform="translate(68.500000, 97.000000) rotate(14.000000) translate(-68.500000, -97.000000) "></g>
            </rect>
            <rect id="Rectangle-20" fill="#E2D643" sketch:type="MSShapeGroup" mask="url(#mask-2)" x="74" y="0" width="7" height="194">
                <g transform="translate(77.500000, 97.000000) rotate(14.000000) translate(-77.500000, -97.000000) "></g>
            </rect>
            <rect id="Rectangle-19" fill="#E2D643" sketch:type="MSShapeGroup" mask="url(#mask-2)" x="84" y="0" width="7" height="194">
                <g transform="translate(87.500000, 97.000000) rotate(14.000000) translate(-87.500000, -97.000000) "></g>
            </rect>
            <rect id="Rectangle-18" fill="#E2D643" sketch:type="MSShapeGroup" mask="url(#mask-2)" x="94" y="0" width="7" height="194">
                <g transform="translate(97.500000, 97.000000) rotate(14.000000) translate(-97.500000, -97.000000) "></g>
            </rect>
            <rect id="Rectangle-17" fill="#E2D643" sketch:type="MSShapeGroup" mask="url(#mask-2)" x="104" y="0" width="7" height="194">
                <g transform="translate(107.500000, 97.000000) rotate(14.000000) translate(-107.500000, -97.000000) "></g>
            </rect>
            <rect id="Rectangle-16" fill="#E2D643" sketch:type="MSShapeGroup" mask="url(#mask-2)" x="114" y="0" width="7" height="194">
                <g transform="translate(117.500000, 97.000000) rotate(14.000000) translate(-117.500000, -97.000000) "></g>
            </rect>
            <rect id="Rectangle-15" fill="#E2D643" sketch:type="MSShapeGroup" mask="url(#mask-2)" x="124" y="0" width="7" height="194">
                <g transform="translate(127.500000, 97.000000) rotate(14.000000) translate(-127.500000, -97.000000) "></g>
            </rect>
            <rect id="Rectangle-14" fill="#E2D643" sketch:type="MSShapeGroup" mask="url(#mask-2)" x="134" y="0" width="7" height="194">
                <g transform="translate(137.500000, 97.000000) rotate(14.000000) translate(-137.500000, -97.000000) "></g>
            </rect>
            <rect id="Rectangle-13" fill="#E2D643" sketch:type="MSShapeGroup" mask="url(#mask-2)" x="144" y="0" width="7" height="194">
                <g transform="translate(147.500000, 97.000000) rotate(14.000000) translate(-147.500000, -97.000000) "></g>
            </rect>
            <rect id="Rectangle-12" fill="#E2D643" sketch:type="MSShapeGroup" mask="url(#mask-2)" x="154" y="0" width="7" height="194">
                <g transform="translate(157.500000, 97.000000) rotate(14.000000) translate(-157.500000, -97.000000) "></g>
            </rect>
            <rect id="Rectangle-11" fill="#E2D643" sketch:type="MSShapeGroup" mask="url(#mask-2)" x="164" y="0" width="7" height="194">
                <g transform="translate(167.500000, 97.000000) rotate(14.000000) translate(-167.500000, -97.000000) "></g>
            </rect>
            <rect id="Rectangle-40" fill="#E2D643" sketch:type="MSShapeGroup" mask="url(#mask-2)" x="175" y="0" width="7" height="194">
                <g transform="translate(178.500000, 97.000000) rotate(14.000000) translate(-178.500000, -97.000000) "></g>
            </rect>
            <rect id="Rectangle-39" fill="#E2D643" sketch:type="MSShapeGroup" mask="url(#mask-2)" x="185" y="0" width="7" height="194">
                <g transform="translate(188.500000, 97.000000) rotate(14.000000) translate(-188.500000, -97.000000) "></g>
            </rect>
            <rect id="Rectangle-38" fill="#E2D643" sketch:type="MSShapeGroup" mask="url(#mask-2)" x="195" y="0" width="7" height="194">
                <g transform="translate(198.500000, 97.000000) rotate(14.000000) translate(-198.500000, -97.000000) "></g>
            </rect>
            <rect id="Rectangle-37" fill="#E2D643" sketch:type="MSShapeGroup" mask="url(#mask-2)" x="205" y="0" width="7" height="194">
                <g transform="translate(208.500000, 97.000000) rotate(14.000000) translate(-208.500000, -97.000000) "></g>
            </rect>
            <rect id="Rectangle-36" fill="#E2D643" sketch:type="MSShapeGroup" mask="url(#mask-2)" x="215" y="0" width="7" height="194">
                <g transform="translate(218.500000, 97.000000) rotate(14.000000) translate(-218.500000, -97.000000) "></g>
            </rect>
            <rect id="Rectangle-35" fill="#E2D643" sketch:type="MSShapeGroup" mask="url(#mask-2)" x="225" y="0" width="7" height="194">
                <g transform="translate(228.500000, 97.000000) rotate(14.000000) translate(-228.500000, -97.000000) "></g>
            </rect>
            <rect id="Rectangle-34" fill="#E2D643" sketch:type="MSShapeGroup" mask="url(#mask-2)" x="235" y="0" width="7" height="194">
                <g transform="translate(238.500000, 97.000000) rotate(14.000000) translate(-238.500000, -97.000000) "></g>
            </rect>
            <rect id="Rectangle-33" fill="#E2D643" sketch:type="MSShapeGroup" mask="url(#mask-2)" x="245" y="0" width="7" height="194">
                <g transform="translate(248.500000, 97.000000) rotate(14.000000) translate(-248.500000, -97.000000) "></g>
            </rect>
            <rect id="Rectangle-32" fill="#E2D643" sketch:type="MSShapeGroup" mask="url(#mask-2)" x="255" y="0" width="7" height="194">
                <g transform="translate(258.500000, 97.000000) rotate(14.000000) translate(-258.500000, -97.000000) "></g>
            </rect>
            <rect id="Rectangle-31" fill="#E2D643" sketch:type="MSShapeGroup" mask="url(#mask-2)" x="265" y="0" width="7" height="194">
                <g transform="translate(268.500000, 97.000000) rotate(14.000000) translate(-268.500000, -97.000000) "></g>
            </rect>
            <rect id="Rectangle-30" fill="#E2D643" sketch:type="MSShapeGroup" mask="url(#mask-2)" x="274" y="0" width="7" height="194">
                <g transform="translate(277.500000, 97.000000) rotate(14.000000) translate(-277.500000, -97.000000) "></g>
            </rect>
            <rect id="Rectangle-29" fill="#E2D643" sketch:type="MSShapeGroup" mask="url(#mask-2)" x="284" y="0" width="7" height="194">
                <g transform="translate(287.500000, 97.000000) rotate(14.000000) translate(-287.500000, -97.000000) "></g>
            </rect>
            <rect id="Rectangle-28" fill="#E2D643" sketch:type="MSShapeGroup" mask="url(#mask-2)" x="294" y="0" width="7" height="194">
                <g transform="translate(297.500000, 97.000000) rotate(14.000000) translate(-297.500000, -97.000000) "></g>
            </rect>
            <rect id="Rectangle-27" fill="#E2D643" sketch:type="MSShapeGroup" mask="url(#mask-2)" x="304" y="0" width="7" height="194">
                <g transform="translate(307.500000, 97.000000) rotate(14.000000) translate(-307.500000, -97.000000) "></g>
            </rect>
            <rect id="Rectangle-26" fill="#E2D643" sketch:type="MSShapeGroup" mask="url(#mask-2)" x="314" y="0" width="7" height="194">
                <g transform="translate(317.500000, 97.000000) rotate(14.000000) translate(-317.500000, -97.000000) "></g>
            </rect>
            <rect id="Rectangle-25" fill="#E2D643" sketch:type="MSShapeGroup" mask="url(#mask-2)" x="324" y="0" width="7" height="194">
                <g transform="translate(327.500000, 97.000000) rotate(14.000000) translate(-327.500000, -97.000000) "></g>
            </rect>
            <rect id="Rectangle-24" fill="#E2D643" sketch:type="MSShapeGroup" mask="url(#mask-2)" x="334" y="0" width="7" height="194">
                <g transform="translate(337.500000, 97.000000) rotate(14.000000) translate(-337.500000, -97.000000) "></g>
            </rect>
            <rect id="Rectangle-23" fill="#E2D643" sketch:type="MSShapeGroup" mask="url(#mask-2)" x="344" y="0" width="7" height="194">
                <g transform="translate(347.500000, 97.000000) rotate(14.000000) translate(-347.500000, -97.000000) "></g>
            </rect>
            <rect id="Rectangle-22" fill="#E2D643" sketch:type="MSShapeGroup" mask="url(#mask-2)" x="354" y="0" width="7" height="194">
                <g transform="translate(357.500000, 97.000000) rotate(14.000000) translate(-357.500000, -97.000000) "></g>
            </rect>
            <rect id="Rectangle-21" fill="#E2D643" sketch:type="MSShapeGroup" mask="url(#mask-2)" x="364" y="0" width="7" height="194">
                <g transform="translate(367.500000, 97.000000) rotate(14.000000) translate(-367.500000, -97.000000) "></g>
            </rect>
            <rect id="Rectangle-80" fill="#E2D643" sketch:type="MSShapeGroup" mask="url(#mask-2)" x="374" y="0" width="7" height="194">
                <g transform="translate(377.500000, 97.000000) rotate(14.000000) translate(-377.500000, -97.000000) "></g>
            </rect>
            <rect id="Rectangle-79" fill="#E2D643" sketch:type="MSShapeGroup" mask="url(#mask-2)" x="384" y="0" width="7" height="194">
                <g transform="translate(387.500000, 97.000000) rotate(14.000000) translate(-387.500000, -97.000000) "></g>
            </rect>
            <rect id="Rectangle-78" fill="#E2D643" sketch:type="MSShapeGroup" mask="url(#mask-2)" x="394" y="0" width="7" height="194">
                <g transform="translate(397.500000, 97.000000) rotate(14.000000) translate(-397.500000, -97.000000) "></g>
            </rect>
            <rect id="Rectangle-77" fill="#E2D643" sketch:type="MSShapeGroup" mask="url(#mask-2)" x="404" y="0" width="7" height="194">
                <g transform="translate(407.500000, 97.000000) rotate(14.000000) translate(-407.500000, -97.000000) "></g>
            </rect>
            <rect id="Rectangle-76" fill="#E2D643" sketch:type="MSShapeGroup" mask="url(#mask-2)" x="414" y="0" width="7" height="194">
                <g transform="translate(417.500000, 97.000000) rotate(14.000000) translate(-417.500000, -97.000000) "></g>
            </rect>
            <rect id="Rectangle-75" fill="#E2D643" sketch:type="MSShapeGroup" mask="url(#mask-2)" x="424" y="0" width="7" height="194">
                <g transform="translate(427.500000, 97.000000) rotate(14.000000) translate(-427.500000, -97.000000) "></g>
            </rect>
            <rect id="Rectangle-74" fill="#E2D643" sketch:type="MSShapeGroup" mask="url(#mask-2)" x="434" y="0" width="7" height="194">
                <g transform="translate(437.500000, 97.000000) rotate(14.000000) translate(-437.500000, -97.000000) "></g>
            </rect>
            <rect id="Rectangle-73" fill="#E2D643" sketch:type="MSShapeGroup" mask="url(#mask-2)" x="444" y="0" width="7" height="194">
                <g transform="translate(447.500000, 97.000000) rotate(14.000000) translate(-447.500000, -97.000000) "></g>
            </rect>
            <rect id="Rectangle-72" fill="#E2D643" sketch:type="MSShapeGroup" mask="url(#mask-2)" x="454" y="0" width="7" height="194">
                <g transform="translate(457.500000, 97.000000) rotate(14.000000) translate(-457.500000, -97.000000) "></g>
            </rect>
            <rect id="Rectangle-71" fill="#E2D643" sketch:type="MSShapeGroup" mask="url(#mask-2)" x="464" y="0" width="7" height="194">
                <g transform="translate(467.500000, 97.000000) rotate(14.000000) translate(-467.500000, -97.000000) "></g>
            </rect>
            <rect id="Rectangle-70" fill="#E2D643" sketch:type="MSShapeGroup" mask="url(#mask-2)" x="473" y="0" width="7" height="194">
                <g transform="translate(476.500000, 97.000000) rotate(14.000000) translate(-476.500000, -97.000000) "></g>
            </rect>
            <rect id="Rectangle-69" fill="#E2D643" sketch:type="MSShapeGroup" mask="url(#mask-2)" x="483" y="0" width="7" height="194">
                <g transform="translate(486.500000, 97.000000) rotate(14.000000) translate(-486.500000, -97.000000) "></g>
            </rect>
            <rect id="Rectangle-68" fill="#E2D643" sketch:type="MSShapeGroup" mask="url(#mask-2)" x="493" y="0" width="7" height="194">
                <g transform="translate(496.500000, 97.000000) rotate(14.000000) translate(-496.500000, -97.000000) "></g>
            </rect>
            <rect id="Rectangle-67" fill="#E2D643" sketch:type="MSShapeGroup" mask="url(#mask-2)" x="503" y="0" width="7" height="194">
                <g transform="translate(506.500000, 97.000000) rotate(14.000000) translate(-506.500000, -97.000000) "></g>
            </rect>
            <rect id="Rectangle-66" fill="#E2D643" sketch:type="MSShapeGroup" mask="url(#mask-2)" x="513" y="0" width="7" height="194">
                <g transform="translate(516.500000, 97.000000) rotate(14.000000) translate(-516.500000, -97.000000) "></g>
            </rect>
            <rect id="Rectangle-65" fill="#E2D643" sketch:type="MSShapeGroup" mask="url(#mask-2)" x="523" y="0" width="7" height="194">
                <g transform="translate(526.500000, 97.000000) rotate(14.000000) translate(-526.500000, -97.000000) "></g>
            </rect>
            <rect id="Rectangle-64" fill="#E2D643" sketch:type="MSShapeGroup" mask="url(#mask-2)" x="533" y="0" width="7" height="194">
                <g transform="translate(536.500000, 97.000000) rotate(14.000000) translate(-536.500000, -97.000000) "></g>
            </rect>
            <rect id="Rectangle-63" fill="#E2D643" sketch:type="MSShapeGroup" mask="url(#mask-2)" x="543" y="0" width="7" height="194">
                <g transform="translate(546.500000, 97.000000) rotate(14.000000) translate(-546.500000, -97.000000) "></g>
            </rect>
            <rect id="Rectangle-62" fill="#E2D643" sketch:type="MSShapeGroup" mask="url(#mask-2)" x="553" y="0" width="7" height="194">
                <g transform="translate(556.500000, 97.000000) rotate(14.000000) translate(-556.500000, -97.000000) "></g>
            </rect>
            <rect id="Rectangle-61" fill="#E2D643" sketch:type="MSShapeGroup" mask="url(#mask-2)" x="563" y="0" width="7" height="194">
                <g transform="translate(566.500000, 97.000000) rotate(14.000000) translate(-566.500000, -97.000000) "></g>
            </rect>
            <rect id="Rectangle-60" fill="#E2D643" sketch:type="MSShapeGroup" mask="url(#mask-2)" x="574" y="0" width="7" height="194">
                <g transform="translate(577.500000, 97.000000) rotate(14.000000) translate(-577.500000, -97.000000) "></g>
            </rect>
            <rect id="Rectangle-59" fill="#E2D643" sketch:type="MSShapeGroup" mask="url(#mask-2)" x="584" y="0" width="7" height="194">
                <g transform="translate(587.500000, 97.000000) rotate(14.000000) translate(-587.500000, -97.000000) "></g>
            </rect>
            <rect id="Rectangle-58" fill="#E2D643" sketch:type="MSShapeGroup" mask="url(#mask-2)" x="594" y="0" width="7" height="194">
                <g transform="translate(597.500000, 97.000000) rotate(14.000000) translate(-597.500000, -97.000000) "></g>
            </rect>
            <rect id="Rectangle-57" fill="#E2D643" sketch:type="MSShapeGroup" mask="url(#mask-2)" x="604" y="0" width="7" height="194">
                <g transform="translate(607.500000, 97.000000) rotate(14.000000) translate(-607.500000, -97.000000) "></g>
            </rect>
            <rect id="Rectangle-56" fill="#E2D643" sketch:type="MSShapeGroup" mask="url(#mask-2)" x="614" y="0" width="7" height="194">
                <g transform="translate(617.500000, 97.000000) rotate(14.000000) translate(-617.500000, -97.000000) "></g>
            </rect>
            <rect id="Rectangle-55" fill="#E2D643" sketch:type="MSShapeGroup" mask="url(#mask-2)" x="624" y="0" width="7" height="194">
                <g transform="translate(627.500000, 97.000000) rotate(14.000000) translate(-627.500000, -97.000000) "></g>
            </rect>
            <rect id="Rectangle-54" fill="#E2D643" sketch:type="MSShapeGroup" mask="url(#mask-2)" x="634" y="0" width="7" height="194">
                <g transform="translate(637.500000, 97.000000) rotate(14.000000) translate(-637.500000, -97.000000) "></g>
            </rect>
            <rect id="Rectangle-53" fill="#E2D643" sketch:type="MSShapeGroup" mask="url(#mask-2)" x="644" y="0" width="7" height="194">
                <g transform="translate(647.500000, 97.000000) rotate(14.000000) translate(-647.500000, -97.000000) "></g>
            </rect>
            <rect id="Rectangle-52" fill="#E2D643" sketch:type="MSShapeGroup" mask="url(#mask-2)" x="654" y="0" width="7" height="194">
                <g transform="translate(657.500000, 97.000000) rotate(14.000000) translate(-657.500000, -97.000000) "></g>
            </rect>
            <rect id="Rectangle-51" fill="#E2D643" sketch:type="MSShapeGroup" mask="url(#mask-2)" x="664" y="0" width="7" height="194">
                <g transform="translate(667.500000, 97.000000) rotate(14.000000) translate(-667.500000, -97.000000) "></g>
            </rect>
            <rect id="Rectangle-50" fill="#E2D643" sketch:type="MSShapeGroup" mask="url(#mask-2)" x="673" y="0" width="7" height="194">
                <g transform="translate(676.500000, 97.000000) rotate(14.000000) translate(-676.500000, -97.000000) "></g>
            </rect>
            <rect id="Rectangle-49" fill="#E2D643" sketch:type="MSShapeGroup" mask="url(#mask-2)" x="683" y="0" width="7" height="194">
                <g transform="translate(686.500000, 97.000000) rotate(14.000000) translate(-686.500000, -97.000000) "></g>
            </rect>
            <rect id="Rectangle-48" fill="#E2D643" sketch:type="MSShapeGroup" mask="url(#mask-2)" x="693" y="0" width="7" height="194">
                <g transform="translate(696.500000, 97.000000) rotate(14.000000) translate(-696.500000, -97.000000) "></g>
            </rect>
            <rect id="Rectangle-47" fill="#E2D643" sketch:type="MSShapeGroup" mask="url(#mask-2)" x="703" y="0" width="7" height="194">
                <g transform="translate(706.500000, 97.000000) rotate(14.000000) translate(-706.500000, -97.000000) "></g>
            </rect>
            <rect id="Rectangle-46" fill="#E2D643" sketch:type="MSShapeGroup" mask="url(#mask-2)" x="713" y="0" width="7" height="194">
                <g transform="translate(716.500000, 97.000000) rotate(14.000000) translate(-716.500000, -97.000000) "></g>
            </rect>
            <rect id="Rectangle-45" fill="#E2D643" sketch:type="MSShapeGroup" mask="url(#mask-2)" x="723" y="0" width="7" height="194">
                <g transform="translate(726.500000, 97.000000) rotate(14.000000) translate(-726.500000, -97.000000) "></g>
            </rect>
            <rect id="Rectangle-44" fill="#E2D643" sketch:type="MSShapeGroup" mask="url(#mask-2)" x="733" y="0" width="7" height="194">
                <g transform="translate(736.500000, 97.000000) rotate(14.000000) translate(-736.500000, -97.000000) "></g>
            </rect>
            <rect id="Rectangle-43" fill="#E2D643" sketch:type="MSShapeGroup" mask="url(#mask-2)" x="743" y="0" width="7" height="194">
                <g transform="translate(746.500000, 97.000000) rotate(14.000000) translate(-746.500000, -97.000000) "></g>
            </rect>
            <rect id="Rectangle-42" fill="#E2D643" sketch:type="MSShapeGroup" mask="url(#mask-2)" x="753" y="0" width="7" height="194">
                <g transform="translate(756.500000, 97.000000) rotate(14.000000) translate(-756.500000, -97.000000) "></g>
            </rect>
            <rect id="Rectangle-41" fill="#E2D643" sketch:type="MSShapeGroup" mask="url(#mask-2)" x="763" y="0" width="7" height="194">
                <g transform="translate(766.500000, 97.000000) rotate(14.000000) translate(-766.500000, -97.000000) "></g>
            </rect>
            <rect id="Rectangle-160" fill="#E2D643" sketch:type="MSShapeGroup" mask="url(#mask-2)" x="773" y="0" width="7" height="194">
                <g transform="translate(776.500000, 97.000000) rotate(14.000000) translate(-776.500000, -97.000000) "></g>
            </rect>
            <rect id="Rectangle-159" fill="#E2D643" sketch:type="MSShapeGroup" mask="url(#mask-2)" x="783" y="0" width="7" height="194">
                <g transform="translate(786.500000, 97.000000) rotate(14.000000) translate(-786.500000, -97.000000) "></g>
            </rect>
            <rect id="Rectangle-158" fill="#E2D643" sketch:type="MSShapeGroup" mask="url(#mask-2)" x="793" y="0" width="7" height="194">
                <g transform="translate(796.500000, 97.000000) rotate(14.000000) translate(-796.500000, -97.000000) "></g>
            </rect>
            <rect id="Rectangle-157" fill="#E2D643" sketch:type="MSShapeGroup" mask="url(#mask-2)" x="803" y="0" width="7" height="194">
                <g transform="translate(806.500000, 97.000000) rotate(14.000000) translate(-806.500000, -97.000000) "></g>
            </rect>
            <rect id="Rectangle-156" fill="#E2D643" sketch:type="MSShapeGroup" mask="url(#mask-2)" x="813" y="0" width="7" height="194">
                <g transform="translate(816.500000, 97.000000) rotate(14.000000) translate(-816.500000, -97.000000) "></g>
            </rect>
            <rect id="Rectangle-155" fill="#E2D643" sketch:type="MSShapeGroup" mask="url(#mask-2)" x="823" y="0" width="7" height="194">
                <g transform="translate(826.500000, 97.000000) rotate(14.000000) translate(-826.500000, -97.000000) "></g>
            </rect>
            <rect id="Rectangle-154" fill="#E2D643" sketch:type="MSShapeGroup" mask="url(#mask-2)" x="833" y="0" width="7" height="194">
                <g transform="translate(836.500000, 97.000000) rotate(14.000000) translate(-836.500000, -97.000000) "></g>
            </rect>
            <rect id="Rectangle-153" fill="#E2D643" sketch:type="MSShapeGroup" mask="url(#mask-2)" x="843" y="0" width="7" height="194">
                <g transform="translate(846.500000, 97.000000) rotate(14.000000) translate(-846.500000, -97.000000) "></g>
            </rect>
            <rect id="Rectangle-152" fill="#E2D643" sketch:type="MSShapeGroup" mask="url(#mask-2)" x="853" y="0" width="7" height="194">
                <g transform="translate(856.500000, 97.000000) rotate(14.000000) translate(-856.500000, -97.000000) "></g>
            </rect>
            <rect id="Rectangle-151" fill="#E2D643" sketch:type="MSShapeGroup" mask="url(#mask-2)" x="863" y="0" width="7" height="194">
                <g transform="translate(866.500000, 97.000000) rotate(14.000000) translate(-866.500000, -97.000000) "></g>
            </rect>
            <rect id="Rectangle-150" fill="#E2D643" sketch:type="MSShapeGroup" mask="url(#mask-2)" x="872" y="0" width="7" height="194">
                <g transform="translate(875.500000, 97.000000) rotate(14.000000) translate(-875.500000, -97.000000) "></g>
            </rect>
            <rect id="Rectangle-149" fill="#E2D643" sketch:type="MSShapeGroup" mask="url(#mask-2)" x="882" y="0" width="7" height="194">
                <g transform="translate(885.500000, 97.000000) rotate(14.000000) translate(-885.500000, -97.000000) "></g>
            </rect>
            <rect id="Rectangle-148" fill="#E2D643" sketch:type="MSShapeGroup" mask="url(#mask-2)" x="892" y="0" width="7" height="194">
                <g transform="translate(895.500000, 97.000000) rotate(14.000000) translate(-895.500000, -97.000000) "></g>
            </rect>
            <rect id="Rectangle-147" fill="#E2D643" sketch:type="MSShapeGroup" mask="url(#mask-2)" x="902" y="0" width="7" height="194">
                <g transform="translate(905.500000, 97.000000) rotate(14.000000) translate(-905.500000, -97.000000) "></g>
            </rect>
            <rect id="Rectangle-146" fill="#E2D643" sketch:type="MSShapeGroup" mask="url(#mask-2)" x="912" y="0" width="7" height="194">
                <g transform="translate(915.500000, 97.000000) rotate(14.000000) translate(-915.500000, -97.000000) "></g>
            </rect>
            <rect id="Rectangle-145" fill="#E2D643" sketch:type="MSShapeGroup" mask="url(#mask-2)" x="922" y="0" width="7" height="194">
                <g transform="translate(925.500000, 97.000000) rotate(14.000000) translate(-925.500000, -97.000000) "></g>
            </rect>
            <rect id="Rectangle-144" fill="#E2D643" sketch:type="MSShapeGroup" mask="url(#mask-2)" x="932" y="0" width="7" height="194">
                <g transform="translate(935.500000, 97.000000) rotate(14.000000) translate(-935.500000, -97.000000) "></g>
            </rect>
            <rect id="Rectangle-143" fill="#E2D643" sketch:type="MSShapeGroup" mask="url(#mask-2)" x="942" y="0" width="7" height="194">
                <g transform="translate(945.500000, 97.000000) rotate(14.000000) translate(-945.500000, -97.000000) "></g>
            </rect>
            <rect id="Rectangle-142" fill="#E2D643" sketch:type="MSShapeGroup" mask="url(#mask-2)" x="952" y="0" width="7" height="194">
                <g transform="translate(955.500000, 97.000000) rotate(14.000000) translate(-955.500000, -97.000000) "></g>
            </rect>
            <rect id="Rectangle-141" fill="#E2D643" sketch:type="MSShapeGroup" mask="url(#mask-2)" x="962" y="0" width="7" height="194">
                <g transform="translate(965.500000, 97.000000) rotate(14.000000) translate(-965.500000, -97.000000) "></g>
            </rect>
            <rect id="Rectangle-140" fill="#E2D643" sketch:type="MSShapeGroup" mask="url(#mask-2)" x="973" y="0" width="7" height="194">
                <g transform="translate(976.500000, 97.000000) rotate(14.000000) translate(-976.500000, -97.000000) "></g>
            </rect>
            <rect id="Rectangle-139" fill="#E2D643" sketch:type="MSShapeGroup" mask="url(#mask-2)" x="983" y="0" width="7" height="194">
                <g transform="translate(986.500000, 97.000000) rotate(14.000000) translate(-986.500000, -97.000000) "></g>
            </rect>
            <rect id="Rectangle-138" fill="#E2D643" sketch:type="MSShapeGroup" mask="url(#mask-2)" x="993" y="0" width="7" height="194">
                <g transform="translate(996.500000, 97.000000) rotate(14.000000) translate(-996.500000, -97.000000) "></g>
            </rect>
            <rect id="Rectangle-137" fill="#E2D643" sketch:type="MSShapeGroup" mask="url(#mask-2)" x="1003" y="0" width="7" height="194">
                <g transform="translate(1006.500000, 97.000000) rotate(14.000000) translate(-1006.500000, -97.000000) "></g>
            </rect>
            <rect id="Rectangle-136" fill="#E2D643" sketch:type="MSShapeGroup" mask="url(#mask-2)" x="1013" y="0" width="7" height="194">
                <g transform="translate(1016.500000, 97.000000) rotate(14.000000) translate(-1016.500000, -97.000000) "></g>
            </rect>
            <rect id="Rectangle-135" fill="#E2D643" sketch:type="MSShapeGroup" mask="url(#mask-2)" x="1023" y="0" width="7" height="194">
                <g transform="translate(1026.500000, 97.000000) rotate(14.000000) translate(-1026.500000, -97.000000) "></g>
            </rect>
            <rect id="Rectangle-134" fill="#E2D643" sketch:type="MSShapeGroup" mask="url(#mask-2)" x="1033" y="0" width="7" height="194">
                <g transform="translate(1036.500000, 97.000000) rotate(14.000000) translate(-1036.500000, -97.000000) "></g>
            </rect>
            <rect id="Rectangle-133" fill="#E2D643" sketch:type="MSShapeGroup" mask="url(#mask-2)" x="1043" y="0" width="7" height="194">
                <g transform="translate(1046.500000, 97.000000) rotate(14.000000) translate(-1046.500000, -97.000000) "></g>
            </rect>
            <rect id="Rectangle-132" fill="#E2D643" sketch:type="MSShapeGroup" mask="url(#mask-2)" x="1053" y="0" width="7" height="194">
                <g transform="translate(1056.500000, 97.000000) rotate(14.000000) translate(-1056.500000, -97.000000) "></g>
            </rect>
            <rect id="Rectangle-131" fill="#E2D643" sketch:type="MSShapeGroup" mask="url(#mask-2)" x="1063" y="0" width="7" height="194">
                <g transform="translate(1066.500000, 97.000000) rotate(14.000000) translate(-1066.500000, -97.000000) "></g>
            </rect>
            <rect id="Rectangle-130" fill="#E2D643" sketch:type="MSShapeGroup" mask="url(#mask-2)" x="1072" y="0" width="7" height="194">
                <g transform="translate(1075.500000, 97.000000) rotate(14.000000) translate(-1075.500000, -97.000000) "></g>
            </rect>
            <rect id="Rectangle-129" fill="#E2D643" sketch:type="MSShapeGroup" mask="url(#mask-2)" x="1082" y="0" width="7" height="194">
                <g transform="translate(1085.500000, 97.000000) rotate(14.000000) translate(-1085.500000, -97.000000) "></g>
            </rect>
            <rect id="Rectangle-128" fill="#E2D643" sketch:type="MSShapeGroup" mask="url(#mask-2)" x="1092" y="0" width="7" height="194">
                <g transform="translate(1095.500000, 97.000000) rotate(14.000000) translate(-1095.500000, -97.000000) "></g>
            </rect>
            <rect id="Rectangle-127" fill="#E2D643" sketch:type="MSShapeGroup" mask="url(#mask-2)" x="1102" y="0" width="7" height="194">
                <g transform="translate(1105.500000, 97.000000) rotate(14.000000) translate(-1105.500000, -97.000000) "></g>
            </rect>
            <rect id="Rectangle-126" fill="#E2D643" sketch:type="MSShapeGroup" mask="url(#mask-2)" x="1112" y="0" width="7" height="194">
                <g transform="translate(1115.500000, 97.000000) rotate(14.000000) translate(-1115.500000, -97.000000) "></g>
            </rect>
            <rect id="Rectangle-125" fill="#E2D643" sketch:type="MSShapeGroup" mask="url(#mask-2)" x="1122" y="0" width="7" height="194">
                <g transform="translate(1125.500000, 97.000000) rotate(14.000000) translate(-1125.500000, -97.000000) "></g>
            </rect>
            <rect id="Rectangle-124" fill="#E2D643" sketch:type="MSShapeGroup" mask="url(#mask-2)" x="1132" y="0" width="7" height="194">
                <g transform="translate(1135.500000, 97.000000) rotate(14.000000) translate(-1135.500000, -97.000000) "></g>
            </rect>
            <rect id="Rectangle-123" fill="#E2D643" sketch:type="MSShapeGroup" mask="url(#mask-2)" x="1142" y="0" width="7" height="194">
                <g transform="translate(1145.500000, 97.000000) rotate(14.000000) translate(-1145.500000, -97.000000) "></g>
            </rect>
            <rect id="Rectangle-122" fill="#E2D643" sketch:type="MSShapeGroup" mask="url(#mask-2)" x="1152" y="0" width="7" height="194">
                <g transform="translate(1155.500000, 97.000000) rotate(14.000000) translate(-1155.500000, -97.000000) "></g>
            </rect>
            <rect id="Rectangle-121" fill="#E2D643" sketch:type="MSShapeGroup" mask="url(#mask-2)" x="1162" y="0" width="7" height="194">
                <g transform="translate(1165.500000, 97.000000) rotate(14.000000) translate(-1165.500000, -97.000000) "></g>
            </rect>
            <rect id="Rectangle-120" fill="#E2D643" sketch:type="MSShapeGroup" mask="url(#mask-2)" x="1172" y="0" width="7" height="194">
                <g transform="translate(1175.500000, 97.000000) rotate(14.000000) translate(-1175.500000, -97.000000) "></g>
            </rect>
            <rect id="Rectangle-119" fill="#E2D643" sketch:type="MSShapeGroup" mask="url(#mask-2)" x="1182" y="0" width="7" height="194">
                <g transform="translate(1185.500000, 97.000000) rotate(14.000000) translate(-1185.500000, -97.000000) "></g>
            </rect>
            <rect id="Rectangle-118" fill="#E2D643" sketch:type="MSShapeGroup" mask="url(#mask-2)" x="1192" y="0" width="7" height="194">
                <g transform="translate(1195.500000, 97.000000) rotate(14.000000) translate(-1195.500000, -97.000000) "></g>
            </rect>
            <rect id="Rectangle-117" fill="#E2D643" sketch:type="MSShapeGroup" mask="url(#mask-2)" x="1202" y="0" width="7" height="194">
                <g transform="translate(1205.500000, 97.000000) rotate(14.000000) translate(-1205.500000, -97.000000) "></g>
            </rect>
            <rect id="Rectangle-116" fill="#E2D643" sketch:type="MSShapeGroup" mask="url(#mask-2)" x="1212" y="0" width="7" height="194">
                <g transform="translate(1215.500000, 97.000000) rotate(14.000000) translate(-1215.500000, -97.000000) "></g>
            </rect>
            <rect id="Rectangle-115" fill="#E2D643" sketch:type="MSShapeGroup" mask="url(#mask-2)" x="1222" y="0" width="7" height="194">
                <g transform="translate(1225.500000, 97.000000) rotate(14.000000) translate(-1225.500000, -97.000000) "></g>
            </rect>
            <path d="M-1,57 L35,24 L102,46 L136,23 L156,42 L229,26 L314,41 L367,23 L431,46 L441,34 L453,44 L562,31 L654,47 L710,26 L776,48 L845,20 C845,20 866.717445,36.2660583 874,38 C879.516948,39.3135589 902.452173,21.249651 902.452173,21.249651 L950,45 L1047,22 L1147,48 L1220,42 L1208,115 L-1,57 Z" id="Path-2" fill="#E2D643" sketch:type="MSShapeGroup" mask="url(#mask-2)"></path>
        </g>
    </g>
</svg>