<?xml version="1.0" encoding="UTF-8" standalone="no"?>
<svg width="242px" height="242px" viewBox="0 0 242 242" version="1.1" xmlns="http://www.w3.org/2000/svg" xmlns:xlink="http://www.w3.org/1999/xlink" xmlns:sketch="http://www.bohemiancoding.com/sketch/ns">
    <!-- Generator: Sketch 3.0.3 (7892) - http://www.bohemiancoding.com/sketch -->
    <title>Slice 1</title>
    <desc>Created with Sketch.</desc>
    <defs></defs>
    <g id="Page-1" stroke="none" stroke-width="1" fill="none" fill-rule="evenodd" sketch:type="MSPage">
        <path d="M30.2091421,133.009615 C42.626558,186.828157 58.7136855,221.398243 75.9227631,227.685838 C76.3025899,227.820238 76.6999472,227.937108 77.103148,228.036447 C77.5005053,228.176691 77.8920191,228.305248 78.283533,228.404587 C96.0769595,232.76383 128.689476,213.001148 168.968652,175.205456 C209.247827,137.415607 230.547348,102.746182 214.530342,69.5902202 C198.980816,37.4042782 166.157933,24.6128789 141.13611,17.4955083 C116.383087,9.47824023 81.994149,1.82911203 51.1580531,19.9088696 C19.3928424,38.5320717 17.7917262,79.191074 30.2091421,133.009615" id="Fill-307" fill="#55ACEE" sketch:type="MSShapeGroup"></path>
        <path d="M65.6368693,101.996504 C65.6368693,115.080633 73.9084453,125.457701 84.4359058,128.164763 C82.3304137,128.766332 80.2249216,129.067116 77.9690372,129.067116 C76.7658989,129.067116 75.261976,128.916724 73.9084453,128.465547 C76.7658989,138.993008 85.9398287,146.663014 95.5649354,146.813407 C87.8949285,154.032237 77.6682526,158.243221 66.9903999,158.243221 C64.8849078,158.243221 62.929808,158.092829 61.4258851,157.792044 C71.9533455,165.311659 83.6839443,169.673035 97.0688583,169.673035 C139.329092,169.673035 163.091074,129.518293 163.091074,94.3264969 L163.091074,90.8674742 C167.151666,87.2580592 171.36265,82.5958982 174.220104,77.1817756 C169.858728,79.43766 165.647743,80.7911906 160.985582,81.3927598 C165.647743,78.2345217 169.257158,72.9707915 171.36265,66.8047075 C167.151666,69.9629456 161.587151,72.21883 156.774598,73.2715761 C152.714006,68.0078458 146.39753,65 139.329092,65 C126.996924,65 116.319072,76.5802065 116.319072,91.3186511 C116.319072,93.2737509 116.319072,95.5296353 117.221425,97.3343428 C97.6704274,96.2815967 80.976883,85.603744 69.095892,69.8125533 C66.9903999,73.5723606 66.3888307,78.2345217 66.3888307,82.8966827 C66.3888307,92.0706125 70.5998149,100.342189 76.1643297,105.00435 C72.5549147,105.00435 69.095892,103.801211 65.6368693,101.545327 L65.6368693,101.996504 Z" id="t" fill="#1B1B1B" sketch:type="MSShapeGroup"></path>
    </g>
</svg>